<svg viewBox="0 0 14 14" xmlns="http://www.w3.org/2000/svg"><path d="m2.4084867 5.405739v.497186l-.037137-.0068c-.2281294-.03979-.4710379-.02387-.6779459.04509-.4581535.153097-.71508321.558955-.6919671 1.094035.01099.239877.059117.405101.1629495.56085.1481704.223203.3880473.355836.7389573.411163.2580665.04093.7829156.01213 1.137994-.06291l.026906-.0061v-3.028209h-.6601351v.496049zm-.04699 1.014077.04699.01213v1.055004l-.067075.0061c-.2610982.02501-.4331426-.01895-.5430388-.140212-.0860222-.09398-.1299807-.22813-.1299807-.392974 0-.292172.1390755-.489986.3838788-.54607.070864-.01592.2368453-.01289.3092252.0061zm1.0970672-1.175132v.334994h.6601351l-.00189-.333099-.00303-.331962-.3270359-.003-.3281728-.0019v.334994zm1.7901712.630956c-.2330557.01705-.4771011.07693-.6821143.167118l-.05798.02615v.252003c0 .197055.00303.250109.012884.24594.3531837-.151202.5278807-.192886.7741998-.186065.103833.003.1261912.0068.1500652.02501.048127.03486.062906.07806.062906.181139 0 .05116-.00189.09284-.00493.09284-.0288 0-.2239609.02501-.3171832.04093-.4789958.07996-.7272097.244045-.7931474.52106-.018948.08299-.018948.283077 0 .366068.032211.134149.1000435.234192.2080449.303161.2239609.145139.5619864.159918 1.4449455.06291l.062148-.0068v-.751083c0-.413058-.00493-.792011-.00985-.842032-.029936-.281209-.1640847-.422179-.457015-.477885-.081854-.01516-.2989934-.02615-.3929736-.02009zm.2898986 1.453283v.219034l-.087159.01288c-.1360439.02009-.317941.01781-.3751628-.0042-.104212-.04017-.1451388-.156886-.092085-.259203.0288-.05608.1000435-.101939.2061501-.133013.051917-.01516.2751195-.05192.3258991-.05381l.021979-.0011v.219035zm1.7700867-1.452146c-.2372242.0099-.5911658.06707-.8420323.134149l-.037895.0099v1.979268h.6601351l.00189-.777989.00303-.776852.070106-.01895c.050022-.01288.1080014-.01895.2050132-.02009.1220227-.0011.1402124.0011.1879604.02312.064801.0288.1061067.07503.1288438.142865.015916.04813.017811.114822.020842.740094l.00303.688177h.6499034l-.00417-.782158c-.0030218-.702999-.0049165-.790158-.0200746-.847001-.0299373-.112928-.0750326-.189097-.1568863-.272088-.128086-.128844-.3001303-.195918-.5631233-.217898-.1220227-.0099-.1568863-.01099-.3069515-.0042zm4.3947106.008c-.385015.07011-.660893.300888-.776852.652935-.05495.164844-.07011.281941-.06404.491122.0042.125055.01099.200845.02501.262235.08185.349016.298993.593819.622998.704094.277014.09512.658998.0792.911001-.0379.32211-.147792.519165-.438069.566913-.83218.05608-.45588-.09512-.86818-.391079-1.072056-.128844-.08905-.231919-.131118-.400931-.164087-.11596-.02312-.38009-.02501-.493018-.0042zm.367963.535081c.106107.03903.186066.142107.230024.294825.02008.06897.02312.103075.02312.245182 0 .14097-.003.175834-.02312.242908-.04396.153855-.111033.244046-.220171.295204-.04888.02312-.07011.02691-.15196.02691-.0811 0-.103075-.0042-.150065-.02615-.108002-.05002-.172802-.131117-.217898-.267161-.03411-.103833-.0432-.344847-.01781-.468006.02994-.142865.08981-.247077.181139-.309226.09701-.06707.226992-.07996.34712-.03486zm-2.2471876-.533986c-.262993.02804-.4600483.07617-.6320926.154991-.4100266.187961-.6229978.530155-.6229978.998919 0 .460048.2099396.793147.5801761.921991.2099397.07314.4930171.07617.693104.0068.048885-.01705.090191-.0288.092085-.0269.00796.008-.015158.197055-.031074.248213-.051159.170908-.1530968.26792-.3338571.317184-.092843.02615-.4088896.02615-.5301544 0-.1061066-.02198-.2531402-.07011-.3471204-.112928l-.073138-.03297v.605945l.1178542.036c.2000869.06101.3690997.08716.5851025.08716.4930171.0011.8439271-.150823 1.0500771-.453985.09209-.136044.151202-.308846.179244-.529017.01402-.11217.01705-1.267975.0042-1.535894l-.0068-.143244.07693.003.07806.0042.109139-.22813c.05983-.125054.106816-.230024.104921-.233055-.0091-.008-.208045-.04396-.3619-.0648-.11217-.01516-.220929-.02084-.421016-.02387-.1481705-.0011-.2880039-.0011-.3099831.0011zm.098907.676051c.00303.09019.00796.325899.01099.524849l.00606.3619-.037895.01023c-.1477915.03979-.2940671.03979-.3960053.0019-.1701496-.06518-.2561718-.211076-.2648877-.447922-.00682-.198192.031074-.325141.1299806-.428974.1091383-.115201.2770142-.176971.494154-.183034l.051916-.0011.00606.162192zm-6.4645491.120128c0 1.133068-.014021 1.281238-.1371807 1.521115-.076927.150065-.2190345.275119-.4320058.381984-.05419.02691-.070864.03903-.059875.04509.00796.0049.1451388.07011.3039199.145139l.2898986.137181.061011-.03107c.3880473-.200845.5638812-.482028.6142818-.986035.00682-.06594.014021-.478995.017053-1.042877l.00606-.932223h-.6631667v.762074z"/></svg>